<svg width="40" height="40" viewBox="0 0 40 40" fill="none" xmlns="http://www.w3.org/2000/svg">
<path opacity="0.964" fill-rule="evenodd" clip-rule="evenodd" d="M33.68 0.23999C34.9645 0.240337 35.7645 0.853672 36.08 2.07999C35.3546 3.81914 34.128 5.09914 32.4 5.91999C30.0197 7.13685 27.6197 8.31018 25.2 9.43999C23.9531 10.6604 22.7264 11.9137 21.52 13.2C22.0221 13.0657 22.5021 12.7724 22.96 12.32C23.8435 11.7982 24.7502 11.3182 25.68 10.88C26.6629 10.6276 27.6496 10.3876 28.64 10.16C29.6622 10.175 30.2222 10.6817 30.32 11.68C30.1002 12.4982 29.6734 13.1916 29.04 13.76C26.1648 14.7167 23.2848 15.6767 20.4 16.64C19.5187 17.1608 18.612 17.6408 17.68 18.08C16.5178 19.5499 15.5577 21.1499 14.8 22.88C14.8267 22.96 14.8533 23.04 14.88 23.12C17.6718 20.3506 20.8984 18.2438 24.56 16.8C25.2774 16.6606 25.9707 16.4474 26.64 16.16C27.7066 16.1421 28.7733 16.1954 29.84 16.32C31.525 17.7354 31.525 19.1754 29.84 20.64C29.2 20.96 28.56 21.28 27.92 21.6C24.887 22.0614 21.847 22.4882 18.8 22.88C17.8054 23.2219 16.7922 23.4886 15.76 23.68C15.2627 24.017 14.7294 24.2835 14.16 24.48C13.5738 25.0922 13.2271 25.8122 13.12 26.64C12.9721 26.7275 12.8387 26.8341 12.72 26.96C12.8 27.0133 12.88 27.0667 12.96 27.12C14.627 26.1835 16.387 25.4902 18.24 25.04C19.5141 25.0238 20.8208 25.0506 22.16 25.12C22.7018 25.4962 23.2618 25.8429 23.84 26.16C24.1883 26.8997 24.1083 27.593 23.6 28.24C21.5526 29.1386 19.4461 29.2986 17.28 28.72C16.9053 28.8285 16.5318 28.7752 16.16 28.56C15.6978 28.6605 15.2445 28.7138 14.8 28.72C14.0229 28.357 13.2496 28.4102 12.48 28.88C12.3565 28.8568 12.2498 28.8035 12.16 28.72C11.9282 29.3699 11.6349 29.9832 11.28 30.56C12.4753 30.5114 13.6753 30.4314 14.88 30.32C15.5199 30.6533 16.1866 30.92 16.88 31.12C17.5229 32.2792 17.2029 33.0259 15.92 33.36C14.2319 33.0496 12.5786 32.6229 10.96 32.08C10.8662 32.1134 10.7862 32.1669 10.72 32.24C10.2392 34.6418 9.75918 37.0418 9.28001 39.44C9.17334 39.6533 9.06668 39.6533 8.96001 39.44C8.98302 37.6296 9.22302 35.843 9.68001 34.08C9.62134 33.5349 9.59467 32.9749 9.60001 32.4C8.26471 31.304 6.95806 30.184 5.68001 29.04C5.2903 28.1762 5.55697 27.6427 6.48001 27.44C8.26286 27.9696 9.5162 29.0896 10.24 30.8C10.51 30.3638 10.75 29.9106 10.96 29.44C10.3523 28.9109 9.81899 28.2976 9.36001 27.6C6.99273 26.2192 5.12606 24.3259 3.76001 21.92C4.07215 20.7534 4.81883 20.1134 6.00001 20C7.04299 20.6414 7.97631 21.4147 8.80001 22.32C9.0515 22.8918 9.42484 23.3718 9.92001 23.76C10.4244 25.0101 11.0644 26.1834 11.84 27.28C12.486 26.5088 12.5394 25.7088 12 24.88C10.657 22.9498 9.377 20.9765 8.16001 18.96C6.67988 16.7341 6.25321 14.334 6.88001 11.76C7.44948 10.6898 8.32948 10.3432 9.52001 10.72C9.96726 11.0069 10.3673 11.3536 10.72 11.76C10.8916 12.5414 11.1582 13.288 11.52 14C11.8472 16.9046 12.1672 19.8379 12.48 22.8C12.64 23.28 12.8 23.76 12.96 24.24C13.8335 23.0264 14.4468 21.693 14.8 20.24C14.4378 16.9013 14.0111 13.5412 13.52 10.16C13.4782 8.92407 13.7982 7.80407 14.48 6.79999C14.95 6.24489 15.5367 6.05823 16.24 6.23999C17.1819 6.87047 17.6885 7.75047 17.76 8.87999C17.8248 9.79081 17.7715 10.6975 17.6 11.6C16.9936 14.0536 16.4603 16.507 16 18.96C17.1877 17.2781 18.4144 15.6248 19.68 14C20.3653 12.1027 20.6053 10.156 20.4 8.15999C20.4008 6.22495 20.9608 4.49162 22.08 2.95999C23.7294 2.2597 24.5027 2.8197 24.4 4.63999C24.3733 5.03999 24.3467 5.43999 24.32 5.83999C23.56 7.58908 22.8667 9.34908 22.24 11.12C22.5662 10.7401 22.9395 10.4201 23.36 10.16C24.9565 7.44473 26.8499 4.96473 29.04 2.71999C30.4592 1.63729 32.0059 0.810627 33.68 0.23999ZM21.36 13.52C21.36 13.7333 21.2533 13.84 21.04 13.84C21.0933 13.68 21.2 13.5733 21.36 13.52Z" fill="#564BB4"/>
</svg>
