<svg width="187" height="107" viewBox="0 0 187 107" fill="none" xmlns="http://www.w3.org/2000/svg">
<g clip-path="url(#clip0_2532_557)">
<path d="M62.2485 44.3774C61.3292 43.4817 60.7163 42.2828 60.4873 40.9662C60.457 40.7911 60.4334 40.6126 60.4166 40.4375V39.8414H55.7695V58.285C55.7628 60.4334 54.0151 62.1744 51.8633 62.1744C51.2302 62.1744 50.6341 62.0229 50.1055 61.7568C49.4591 61.4318 48.9158 60.9333 48.5364 60.3172C48.157 59.7012 47.9564 58.9917 47.957 58.2682C47.957 56.113 49.7047 54.3619 51.8633 54.3619C52.2775 54.3619 52.6748 54.4259 53.0486 54.5437V49.8226C52.6614 49.7687 52.2674 49.7418 51.8767 49.7418C47.1556 49.7519 43.3335 53.5739 43.3335 58.285C43.3335 61.2416 44.8354 63.8447 47.1185 65.3769C48.524 66.3217 50.1798 66.8248 51.8734 66.8215C56.5912 66.8215 60.4132 62.9994 60.4132 58.285V48.8595C62.2911 50.2028 64.5429 50.9236 66.8518 50.9204V46.3036C66.1413 46.3036 65.4375 46.1891 64.7707 45.9635C64.3027 45.8052 63.417 45.5223 62.2451 44.3774H62.2485Z" fill="black"/>
<path fill-rule="evenodd" clip-rule="evenodd" d="M73.0347 47.5969V50.8431H76.8365V63.2084H80.6384V50.9307H83.7331L84.7938 47.5969H73.0347ZM104.16 47.5969V50.8431H107.962V63.2084H111.764V50.9307H114.858L115.919 47.5969H104.16ZM85.5044 49.4389C85.5044 48.4219 86.3328 47.5969 87.3598 47.5969C88.3869 47.5969 89.2187 48.4219 89.2187 49.4389C89.2187 50.4558 88.3869 51.2809 87.3598 51.2809C86.3328 51.2809 85.5044 50.4558 85.5044 49.4389ZM85.5044 52.5975H89.2153V63.2084H85.5044V52.5975ZM90.8081 47.5969V63.2084H94.5224V59.1742L95.6707 58.1202L99.2941 63.296H103.274L98.0582 55.7529L102.746 51.1899H98.2367L94.5224 54.8739V47.5935H90.8081V47.5969ZM130.864 47.5969V63.2084H134.578V59.1742L135.727 58.1202L139.353 63.296H143.334L138.118 55.7529L142.805 51.1899H138.296L134.582 54.8739V47.5935H130.867L130.864 47.5969ZM122.196 63.296C125.762 63.296 128.652 60.4303 128.652 56.8944C128.652 53.3586 125.762 50.4929 122.196 50.4929H122.109C118.542 50.4929 115.653 53.3586 115.653 56.8944C115.653 60.4303 118.542 63.296 122.109 63.296H122.196ZM119.014 56.8944C119.014 55.1737 120.422 53.7829 122.152 53.7829C123.883 53.7829 125.291 55.177 125.291 56.8944C125.291 58.6118 123.883 60.0093 122.152 60.0093C120.418 60.0093 119.014 58.6152 119.014 56.8944Z" fill="black"/>
</g>
<defs>
<clipPath id="clip0_2532_557">
<rect width="100" height="27" fill="white" transform="translate(43.3335 39.8333)"/>
</clipPath>
</defs>
</svg>
