<svg width="187" height="107" viewBox="0 0 187 107" fill="none" xmlns="http://www.w3.org/2000/svg">
<path d="M114.751 51.8836C115.509 52.2436 115.509 52.0529 115.706 51.7576C115.902 51.4619 117.025 50.6101 117.025 50.6101C117.025 50.6101 118.071 49.9952 119.144 48.5176C120.171 47.1013 119.275 46.1705 118.427 45.3662C117.579 44.5615 115.627 45.6522 114.148 47.8674C112.669 50.0813 113.995 51.5233 114.751 51.8836ZM121.457 54.5205C121.675 54.3743 121.952 54.5877 121.781 55.0161C121.72 55.1694 120.523 58.3313 117.015 60.6792C117.015 60.6792 117.376 57.2561 121.457 54.5205ZM108.13 42.9175C108.757 42.3375 108.589 42.9734 108.521 43.1665C108.521 43.1665 105.711 50.8676 99.6732 57.7718C99.6732 57.7718 102.863 47.7947 108.13 42.9175ZM72.1261 62.8688C72.1261 62.8688 68.2479 57.7996 61.6483 63.7626L63.8314 56.3291C63.8314 56.3291 66.142 56.5416 69.3679 55.0635C69.3679 55.0635 76.3418 55.2816 72.1261 62.8688ZM70.2363 65.5573C70.2363 65.5573 65.983 69.6979 64.5519 68.0955C63.1958 66.5767 65.6394 64.5321 66.5956 64.0276C67.8349 63.3753 71.5855 62.6936 70.2363 65.5573ZM66.3948 40.076C66.3948 40.076 73.5636 36.6895 76.6539 38.3997C79.7455 40.11 78.8038 43.1716 74.0948 48.2521C74.0948 48.2521 70.4942 51.435 68.346 52.3322C68.346 52.3322 65.6368 52.7451 64.8597 53.1252C64.8597 53.1252 65.5029 51.0297 66.275 48.6318C67.2334 45.664 68.4777 42.3832 67.7876 41.5142C66.9486 40.4545 66.3948 40.076 66.3948 40.076ZM130.553 59.6682C130.526 59.4771 129.681 57.0141 128.957 57.8037C128.234 58.5938 126.379 61.5868 120.427 64.7828C117.498 66.3549 117.27 64.3795 117.124 63.5807C117.124 63.5807 121.171 60.785 123.236 57.0822C124.64 54.5654 123.735 53.9921 123.161 53.4221C122.639 52.9059 121.335 51.7387 119.64 52.9605C117.946 54.1828 113.884 58.1238 114.324 62.4446C113.665 63.1035 111.743 64.6568 110.5 64.3795C109.257 64.1011 110.568 61.4626 111.497 59.6607C112.423 57.8668 114.238 56.4278 114.797 55.613C115.355 54.7981 115.045 54.5377 114.933 54.4084C114.821 54.2785 114.563 54.0992 114.163 53.3831C113.763 52.6674 113.187 53.1659 113.187 53.1659C110.51 54.8985 108.627 59.4712 108.627 59.4712C108.089 60.0647 107.284 59.832 107.129 59.7732C106.893 59.6816 106.715 59.1109 106.668 58.8181C106.629 58.5829 106.467 57.6156 106.337 57.3518C106.209 57.0885 106.068 56.957 105.376 57.1662C104.568 57.4098 103.988 57.8983 103.754 58.1663C103.517 58.4342 103.627 58.4959 103.685 59.3465C103.713 59.7652 103.751 59.777 103.453 60.5104C103.004 61.6192 102.225 63.0342 101.978 63.5093C101.766 63.9193 100.232 65.9294 99.6106 65.9769C99.0564 66.0193 98.8522 65.144 98.8522 65.144C98.8522 65.144 98.5341 63.1208 98.763 62.1207C109.517 50.1825 112.21 41.7574 112.21 41.7574C112.258 41.6146 112.509 41.1219 111.742 39.9991C110.748 38.5442 109.711 38.6068 109.711 38.6068C109.711 38.6068 108.986 38.5152 107.379 40.1538C97.1452 50.5879 96.1297 61.544 96.1297 61.544C96.0279 61.7486 95.9886 61.7855 95.5466 62.2677C95.0819 62.7747 94.4045 63.1363 94.4045 63.1363C94.4045 63.1363 93.7548 63.3022 93.6162 62.7604C93.5272 62.4114 93.5873 62.1434 93.635 61.6747C93.6794 61.2404 94.3094 59.806 94.3094 59.806C94.3094 59.806 95.2584 57.7802 95.4682 57.1796C95.6779 56.5782 95.6289 55.9124 95.4344 55.442C95.24 54.972 94.3665 54.4894 94.0861 54.3012C93.8137 54.1186 93.5221 53.8388 93.5604 53.4394C93.5736 53.3079 93.4488 53.1983 93.9731 52.0562C94.4987 50.9129 93.5301 50.6357 93.2484 50.5882C92.9675 50.5404 92.189 50.3064 91.4771 50.9209C90.216 52.0109 90.1785 53.9203 90.1785 53.9203C90.1747 54.1719 90.2676 54.4201 90.1436 54.7044C90.0724 54.8674 89.8975 55.179 89.444 56.0914C88.9827 57.0171 88.0125 58.874 87.4126 59.9076C86.9083 60.7775 86.2113 61.7771 85.7607 62.2753C85.4563 62.6117 85.0492 62.8835 85.0492 62.8835C85.0492 62.8835 84.5981 63.2187 84.5866 62.3908C84.5748 61.5273 85.782 58.8916 85.782 58.8916C85.782 58.8916 86.6283 56.8306 86.7378 56.582C86.8921 56.2291 86.9936 55.765 86.7553 55.4777C86.4048 55.0589 85.4989 54.843 85.0991 55.0396C84.7009 55.237 83.9855 56.4294 83.561 57.1095C83.0234 57.9709 82.152 59.6485 81.1515 61.3097C80.1825 62.9167 79.1022 63.5001 79.1022 63.5001C79.1022 63.5001 78.5207 63.8486 78.0701 63.4438C77.8139 63.2136 75.7097 61.3844 80.7239 55.8809C82.7893 53.6141 83.8691 53.2344 84.943 53.9782C85.3591 54.2663 85.7684 54.7586 86.3012 54.7729C87.2059 54.7978 87.5022 53.6985 87.5022 53.6985C87.5328 53.5082 88.3249 51.4119 84.9426 51.375C79.4526 51.3153 76.3111 57.4219 76.3111 57.4219C75.2633 53.5267 72.2932 53.2335 72.2932 53.2335C75.7113 50.8659 77.6609 49.3535 80.1411 45.1284C82.6213 40.9031 79.0097 37.5669 79.0097 37.5669C77.4767 35.7398 73.7235 33.8333 67.3975 35.7373C60.788 37.7261 60.2407 39.3112 59.582 41.2513C58.9225 43.1926 60.2155 42.6919 61.0097 42.3131C61.803 41.9334 64.9172 40.6804 64.9172 40.6804C64.9172 40.6804 57.0288 64.6588 56.7956 65.8245C56.5859 66.8719 55.5461 69.7163 58.7038 70.1015C58.7038 70.1015 59.1923 70.1738 59.6379 70.0137C60.0841 69.8546 60.0953 69.5685 60.0953 69.5685C60.2803 68.8851 60.5799 67.809 60.6615 67.7019C62.3905 72.8333 67.9858 71.3388 71.4487 68.3311C73.9639 66.147 75.4517 63.1653 75.4517 63.1653C77.5837 67.7452 80.156 65.3263 80.156 65.3263C81.2026 64.4964 82.5459 62.5928 82.5459 62.5928C83.3542 66.3293 86.1734 64.7714 86.1734 64.7714C87.4983 63.994 88.8292 61.6436 89.0911 61.216C90.5921 58.7711 92.0053 55.8057 92.0053 55.8057C92.0053 55.8057 92.195 55.8167 92.6213 56.1825C93.0011 56.5076 92.8148 57.0401 92.6562 57.532C92.4981 58.0234 91.8851 59.2784 91.5657 60.3508C91.2387 61.4491 91.1765 62.5092 91.6139 63.4673C92.0419 64.4044 93.2978 65.2016 94.1573 65.2969C95.2537 65.4196 96.2743 64.5564 96.2743 64.5564C96.4307 67.2786 98.5879 68.2416 98.5879 68.2416C101.401 69.6865 104.026 65.0978 104.026 65.0978C105.817 62.2122 105.668 61.4869 105.822 61.0451C106.028 61.3088 106.54 61.5961 107.614 61.8027C107.326 62.8175 107.63 63.807 107.63 63.807C107.63 63.807 108.448 65.8417 110.296 66.3343C112.278 66.8632 114.891 64.8915 114.891 64.8915C114.891 64.8915 117.855 69.9154 124.488 65.5514C131.121 61.1879 130.579 59.8602 130.553 59.6682Z" fill="black"/>
</svg>
