<svg width="187" height="107" viewBox="0 0 187 107" fill="none" xmlns="http://www.w3.org/2000/svg">
<g clip-path="url(#clip0_2529_343)">
<path d="M86.4901 70.0231H83.4487C83.3473 70.0231 83.2966 69.9217 83.2966 69.871V60.6961C83.3473 60.544 83.3473 60.3413 83.2966 60.1892C83.1446 59.3275 82.3335 58.7699 81.4718 58.8713C80.6101 59.0233 80.0525 59.8344 80.1539 60.6961V72.152C80.1539 72.6083 80.5087 73.0138 81.0156 73.0645H86.4901C86.5408 73.0645 86.5915 73.0645 86.6422 73.0645C87.4532 73.0138 88.0615 72.3041 88.0108 71.4931C88.0108 70.53 87.3518 69.9724 86.4901 70.0231ZM75.4904 59.6316L67.38 70.5807C67.1772 70.8341 67.0759 71.1382 67.0759 71.4931C67.0759 71.9493 67.2786 72.4562 67.7348 72.7096C68.4445 73.1658 69.3062 73.0138 69.8131 72.4055L71.3845 70.2765H75.1863V71.4931C75.2369 72.3548 75.9466 73.0138 76.7576 72.9631C77.6194 72.9631 78.2277 72.2534 78.2277 71.4931V60.6454C78.2277 60.1892 78.0249 59.733 77.7208 59.4796C77.0618 58.8713 76.048 58.922 75.4904 59.6316ZM75.1356 67.1844H73.7162C73.6656 67.1844 73.6149 67.1337 73.6149 67.083L75.1356 65.0048C75.1356 64.9541 75.1356 67.1844 75.1356 67.1844ZM71.0297 60.6961C71.0297 59.8851 70.3707 59.2261 69.6104 59.2261C69.2048 59.2261 68.7993 59.3782 68.5459 59.6316L65.099 63.2306C65.0483 63.2813 64.9976 63.2813 64.9469 63.2813C64.8962 63.2813 64.8455 63.2813 64.8455 63.2306L61.3986 59.6316C61.1451 59.3782 60.7396 59.1754 60.3341 59.1754C59.5231 59.1754 58.9148 59.8344 58.9148 60.5947C58.9148 60.9496 59.0669 61.3551 59.2696 61.6085L63.4769 66.4241L63.5276 71.4931C63.5276 72.3041 64.1865 72.9631 64.9976 72.9631C65.8086 72.9631 66.4676 72.3041 66.4676 71.4931L66.569 66.4748L70.6749 61.6592C70.9283 61.3551 71.0297 61.0003 71.0297 60.6961ZM53.2375 59.1754C49.4358 59.1754 46.3437 62.2675 46.3437 66.0693C46.3437 69.871 49.4358 72.9631 53.2375 72.9631C57.0393 72.9631 60.1313 69.8203 60.1313 66.0186C60.1313 62.3182 57.0393 59.2261 53.2375 59.1754ZM53.2375 69.7189C51.1592 69.7189 49.5371 68.0968 49.5371 66.0186C49.5371 63.9403 51.1592 62.3182 53.2375 62.3182C55.3158 62.3182 56.9379 63.9403 56.9379 66.0186C56.9379 68.0968 55.3158 69.7189 53.2375 69.7189ZM125.978 58.8713C125.217 58.922 124.609 59.5302 124.609 60.2399V66.6775C124.609 66.7282 124.558 66.7789 124.508 66.7789C124.457 66.7789 124.457 66.7789 124.457 66.7282L120.706 60.0878C120.148 59.074 118.83 58.7699 117.867 59.3782C117.31 59.733 116.904 60.392 116.853 61.0509V71.5945C116.904 72.4562 117.664 73.0645 118.425 73.0138C119.185 72.9631 119.793 72.3548 119.844 71.5945V65.1568C119.844 65.1061 119.895 65.0555 119.945 65.0555C119.996 65.0555 119.996 65.0555 119.996 65.1061L123.849 71.8986C124.356 72.8617 125.572 73.1658 126.535 72.6589C127.194 72.3041 127.549 71.6451 127.549 70.9862V60.2906C127.498 59.4796 126.839 58.8206 125.978 58.8713ZM43.9106 67.3365C45.1271 66.5762 45.9382 65.2582 45.8875 63.8389C45.8875 63.8389 45.8875 63.8389 45.8875 63.7882C45.9382 61.3044 43.9106 59.2261 41.4268 59.1754C40.2102 59.074 38.9429 59.4796 38.0812 60.3413C37.1181 61.3044 36.814 62.521 36.814 63.8389L37.0167 71.4931C37.0167 72.3041 37.6757 72.9631 38.4867 72.9631C39.2978 72.9631 39.9567 72.3041 39.9567 71.4931L40.0074 67.8434C40.0074 67.742 40.0581 67.6913 40.1595 67.6913C40.1595 67.6913 40.2102 67.6913 40.2609 67.6913L43.8599 72.6083C44.1133 72.8617 44.4175 72.9631 44.823 72.9631C45.634 72.9631 46.2423 72.3041 46.293 71.5438C46.293 71.341 46.2423 71.1382 46.1409 70.8848L43.9106 67.3365ZM41.3254 65.2075C41.224 65.2075 41.1733 65.2075 41.0719 65.2075C40.2102 65.1568 39.6526 64.3965 39.7033 63.6361C39.754 62.7744 40.5143 62.2168 41.2747 62.2675C41.3761 62.2675 41.4268 62.2675 41.5281 62.2675C42.3899 62.3182 42.9474 63.0785 42.8968 63.8389C42.8461 64.6499 42.0857 65.4103 41.3254 65.2075ZM102.61 68.3503C102.407 68.3503 102.153 68.401 101.9 68.5024L100.683 69.3134C100.126 69.6682 99.416 69.871 98.7064 69.871C96.5774 69.7696 95.006 67.9448 95.1074 65.9172C95.2088 63.9403 96.7295 62.4196 98.7064 62.3182C99.416 62.3182 100.075 62.521 100.683 62.8758L101.849 63.6868C102.052 63.7882 102.255 63.8389 102.559 63.8389C103.37 63.8389 104.029 63.1799 104.029 62.3689C104.029 62.0647 103.927 61.6592 103.674 61.4058C102.508 60.0371 100.785 59.2261 98.9092 59.2261C95.1074 59.2261 92.0153 62.3182 92.0153 66.1199C92.0153 69.7696 94.854 72.811 98.5036 73.0138C100.481 73.0138 102.305 72.2027 103.674 70.7834C103.877 70.53 104.029 70.2258 103.978 69.8203C104.13 69.0093 103.421 68.3503 102.61 68.3503ZM130.793 58.8206C129.881 58.8206 129.222 59.5809 129.222 60.392V71.4931C129.222 72.4055 129.982 73.0645 130.793 73.0645C131.706 73.0645 132.365 72.3041 132.365 71.4931V60.392C132.365 59.5302 131.706 58.8206 130.793 58.8206ZM107.729 59.5809C107.425 59.2768 106.969 59.074 106.513 59.074C105.6 59.074 104.941 59.4796 104.941 60.392V71.4931C104.941 72.3548 105.651 72.9631 106.462 72.9631C107.273 72.9631 107.983 72.3041 108.033 71.4931V70.2765H111.835L113.406 72.4055C113.66 72.7603 114.167 72.9631 114.623 72.9631C115.485 72.9631 116.093 72.2534 116.093 71.4931C116.093 71.1889 115.992 70.8341 115.789 70.5807L107.729 59.5809ZM109.554 67.083C109.554 67.1337 109.503 67.1844 109.453 67.1844H108.033V64.9034L109.554 67.0324C109.605 67.0324 109.605 67.0324 109.554 67.083ZM143.212 58.8713C142.452 58.922 141.844 59.5302 141.844 60.2399V66.6775C141.844 66.7282 141.793 66.7789 141.742 66.7789C141.691 66.7789 141.691 66.7789 141.641 66.7282L137.94 60.0878C137.383 59.074 136.065 58.7699 135.102 59.3782C134.544 59.733 134.139 60.392 134.088 61.0509V71.5945C134.088 72.4562 134.798 73.1152 135.609 73.1152C136.42 73.1152 137.129 72.4055 137.129 71.5945V65.1568C137.129 65.1061 137.18 65.0555 137.231 65.0555C137.281 65.0555 137.281 65.0555 137.281 65.1061L141.134 71.8986C141.641 72.8617 142.857 73.1658 143.82 72.6589C144.479 72.3041 144.834 71.6451 144.834 70.9862V60.2906C144.733 59.4796 144.023 58.8206 143.212 58.8713ZM148.687 60.1385C148.687 60.0878 148.687 60.0878 148.687 60.0371C148.687 59.6316 148.383 59.5302 148.028 59.5302H147.572C147.419 59.5302 147.369 59.6316 147.369 59.6823V61.0509C147.369 61.203 147.419 61.2537 147.572 61.2537C147.724 61.2537 147.774 61.1523 147.774 61.0509V60.544H147.876L148.129 61.0509C148.18 61.1523 148.23 61.2537 148.383 61.2537C148.535 61.2537 148.585 61.203 148.585 61.1016C148.585 61.0509 148.585 61.0509 148.585 61.0003L148.281 60.544C148.484 60.5947 148.687 60.3413 148.687 60.1385ZM148.078 60.2399H147.774V59.8344H148.078C148.23 59.8344 148.332 59.8851 148.332 60.0371C148.332 60.1892 148.23 60.2399 148.078 60.2399ZM148.028 58.7699C147.115 58.7699 146.406 59.5302 146.406 60.392C146.406 61.2537 147.166 62.0141 148.028 62.0141C148.889 62.0141 149.65 61.2537 149.65 60.392C149.599 59.5302 148.889 58.7699 148.028 58.7699ZM148.028 61.6085C147.318 61.6085 146.811 61.1016 146.811 60.392C146.811 59.6823 147.318 59.1754 148.028 59.1754C148.737 59.1754 149.244 59.6823 149.244 60.392C149.244 61.0509 148.687 61.6085 148.028 61.6085Z" fill="black"/>
<path d="M104.08 51.7746C100.836 49.3922 95.9695 47.9729 90.9512 47.9729C85.9329 47.9729 81.016 49.3922 77.8225 51.7746C77.5184 51.9774 77.3663 52.3322 77.3663 52.7377C77.3663 53.4474 77.8732 53.9543 78.5829 53.9543C78.8363 53.9543 79.0898 53.8529 79.3432 53.7008C81.5229 52.0788 85.7301 50.3553 91.0526 50.3553C96.375 50.3553 100.532 52.0788 102.711 53.7008L102.762 53.7515C103.269 54.1064 104.08 54.005 104.435 53.4474C104.739 52.8898 104.637 52.1295 104.08 51.7746ZM90.9512 50.8622C86.2877 50.8622 81.8777 52.2308 79.1405 54.5119C79.1405 54.5119 79.1405 54.5119 79.0898 54.5119C78.7856 54.816 78.7349 55.3229 78.9884 55.6777C79.1405 55.8805 79.3432 55.9819 79.6474 55.9819C79.8501 55.9819 80.0022 55.9312 80.1543 55.7791C82.5874 53.7515 86.6426 52.4843 90.9005 52.4843C95.1585 52.4843 99.163 53.7008 101.647 55.7791C102.002 56.0833 102.559 56.0326 102.813 55.6777C103.117 55.3229 103.066 54.7653 102.711 54.5119C99.974 52.2815 95.564 50.8622 90.9512 50.8622ZM75.8456 42.0928C76.2004 40.6228 75.3387 39.1528 73.818 38.6966C73.6153 38.6459 73.3618 38.5952 73.1084 38.5952C71.5877 38.5952 70.3711 39.8118 70.3711 41.3325C70.3711 42.8532 71.5877 44.0698 73.1084 44.0698C74.477 44.1711 75.5415 43.3094 75.8456 42.0928ZM90.9512 46.3508C92.4719 46.3508 93.6885 45.1342 93.6885 43.6135C93.6885 42.0928 92.4719 40.8763 90.9512 40.8763C89.4305 40.8763 88.214 42.0928 88.214 43.6135C88.214 45.1342 89.3798 46.3508 90.9512 46.3508ZM90.9512 39.3556C92.4719 39.3556 93.6885 38.139 93.6885 36.6183C93.6885 35.0976 92.4719 33.8304 90.9512 33.8304C89.4305 33.8304 88.214 35.0469 88.214 36.5676C88.1633 38.139 89.3798 39.3556 90.9512 39.3556ZM82.8408 41.8394C81.3708 42.2449 80.5091 43.8163 80.9146 45.2863C81.2187 46.4522 82.3339 47.2632 83.5505 47.3139H83.6012C83.8039 47.3139 84.0574 47.2632 84.3108 47.2125C85.7808 46.807 86.6426 45.2863 86.2877 43.8163C85.9836 42.5997 84.8684 41.738 83.6012 41.738C83.297 41.738 83.0943 41.7887 82.8408 41.8394ZM79.3939 48.0743C79.7487 46.6043 78.887 45.0329 77.3663 44.678C77.1635 44.6273 76.9101 44.5767 76.6566 44.5767C76.2004 44.5767 75.6935 44.7287 75.2373 44.9315C74.5784 45.2863 74.1222 45.9453 73.9701 46.6043C73.7673 47.3646 73.8687 48.0743 74.2742 48.7332C74.7304 49.595 75.6428 50.0512 76.6566 50.1019C77.1129 50.1019 77.6704 50.0005 78.076 49.747C78.7349 49.3922 79.2418 48.7839 79.3939 48.0743ZM97.5916 47.1618C97.845 47.2125 98.0478 47.2632 98.3519 47.2632C99.8726 47.2632 101.089 45.996 101.089 44.526C101.089 43.2587 100.227 42.1942 99.0616 41.8901C98.8082 41.8394 98.6054 41.7887 98.3013 41.7887C96.7806 41.7887 95.564 43.056 95.564 44.5767C95.5133 45.7425 96.375 46.8577 97.5916 47.1618ZM99.4164 40.4708C99.6192 40.5215 99.8726 40.5721 100.177 40.5721C101.697 40.5721 102.914 39.3049 102.914 37.8349C102.914 36.5676 102.052 35.5032 100.886 35.199C100.633 35.1483 100.43 35.0976 100.126 35.0976C98.6054 35.0976 97.3888 36.3649 97.3888 37.8856C97.3888 39.0008 98.2506 40.1159 99.4164 40.4708ZM106.614 44.9822C106.209 44.7287 105.702 44.6273 105.246 44.6273C103.725 44.6273 102.509 45.8439 102.509 47.3646C102.509 47.5674 102.559 47.8208 102.61 48.0743C102.762 48.7839 103.269 49.3922 103.877 49.747C105.195 50.5581 106.919 50.0512 107.679 48.7332C108.034 48.0743 108.135 47.3646 107.983 46.6043C107.679 45.996 107.223 45.3877 106.614 44.9822ZM111.43 40.7242C111.278 40.0146 110.771 39.4063 110.163 39.0514C108.845 38.2404 107.121 38.7473 106.361 40.0652C106.006 40.7242 105.905 41.4339 106.057 42.1942C106.209 42.9039 106.716 43.5122 107.324 43.867C108.642 44.678 110.365 44.2218 111.126 42.9039C111.531 42.1942 111.633 41.3325 111.43 40.7242ZM81.7763 40.5721C82.0298 40.5721 82.2832 40.5215 82.5367 40.4708C84.0067 40.0652 84.8684 38.4939 84.5136 37.0745C84.2094 35.858 83.0943 35.0469 81.8777 35.0469C81.6243 35.0469 81.4215 35.0976 81.1174 35.1483C79.6474 35.5538 78.7856 37.1252 79.1405 38.5445C79.4446 39.7104 80.5091 40.5721 81.7763 40.5721Z" fill="black"/>
</g>
<defs>
<clipPath id="clip0_2529_343">
<rect width="113.039" height="42.4528" fill="white" transform="translate(36.814 32.1069)"/>
</clipPath>
</defs>
</svg>
