<svg width="187" height="107" viewBox="0 0 187 107" fill="none" xmlns="http://www.w3.org/2000/svg">
<path d="M64.606 47.9977C65.0973 47.9977 65.5368 48.1102 65.9189 48.3314C66.2953 48.5498 66.5915 48.886 66.8012 49.3285C67.0137 49.7823 67.1197 50.282 67.1198 50.8133C67.1198 51.5747 66.8987 52.2041 66.462 52.681C66.0224 53.1579 65.5167 53.3879 64.9163 53.3879C64.7439 53.3879 64.5283 53.3738 64.2813 53.345C64.0716 53.3163 63.8275 53.2756 63.5661 53.2296V48.1414C63.9827 48.0466 64.336 47.9977 64.606 47.9977Z" fill="black"/>
<path d="M96.4968 47.9631C97.2639 47.9631 97.8874 48.199 98.35 48.6644C98.8154 49.1356 99.0451 49.7334 99.0451 50.4948C99.045 51.2676 98.761 51.8882 98.1807 52.3881C97.6003 52.888 96.7125 53.1439 95.546 53.144C95.4972 53.144 95.4337 53.1406 95.336 53.1377C95.3015 53.1377 95.2556 53.135 95.204 53.135V48.1213C95.7383 48.0179 96.1779 47.9631 96.4968 47.9631Z" fill="black"/>
<path d="M143.743 54.747H139.898L141.878 50.1901L143.743 54.747Z" fill="black"/>
<path fill-rule="evenodd" clip-rule="evenodd" d="M152.207 43.3516V63.326H55.2428V43.3516H152.207ZM118.822 46.8659V47.5845H119.008C119.362 47.5845 119.626 47.6129 119.79 47.6646C120.143 47.7795 120.41 47.903 120.591 48.0322C120.758 48.1558 121.023 48.4287 121.365 48.831V57.7237C121.365 58.6256 121.255 58.9216 121.186 59.0192C120.994 59.3007 120.658 59.4358 120.164 59.4359H119.529V60.1538H124.395V59.4359H123.752C123.304 59.4359 122.973 59.3208 122.769 59.0939C122.692 59.0048 122.559 58.706 122.559 57.7237V50.2765L130.877 60.3638H131.487V49.2994C131.487 48.3981 131.598 48.1018 131.664 48.0039C131.859 47.7223 132.19 47.5845 132.678 47.5845H133.325V46.8659H128.458V47.5845H129.093C129.544 47.5845 129.875 47.6989 130.073 47.9258C130.156 48.0177 130.294 48.3197 130.294 49.2994V56.2208L122.655 46.935L122.6 46.8659H118.822ZM73.0075 46.7885V47.5064H73.668C74.0875 47.5064 74.3895 47.6099 74.5677 47.8139C74.6941 47.9575 74.8434 48.3258 74.8434 49.2538V54.2958C74.8434 55.8873 74.9466 56.9474 75.1591 57.5364C75.4752 58.3955 76.0215 59.0883 76.7829 59.5969C77.5414 60.1053 78.6533 60.3611 80.0954 60.3611C81.4197 60.3611 82.4882 60.0936 83.2697 59.5651C84.0512 59.0364 84.5833 58.3871 84.8534 57.6401C85.1177 56.9103 85.2493 55.8787 85.2493 54.5715V49.3485C85.2493 48.4521 85.3533 48.1616 85.4165 48.0668C85.655 47.6877 85.9824 47.5064 86.4219 47.5064H87.0852V46.7885H82.2215V47.5064H82.8848C83.3158 47.5064 83.6293 47.6216 83.839 47.8629C83.9195 47.9549 84.0574 48.2628 84.0574 49.2538V54.4741C84.0574 55.8129 83.9363 56.7666 83.7036 57.3153C83.4766 57.8468 83.04 58.2922 82.4108 58.6399C81.7759 58.9904 81.0404 59.1685 80.2274 59.1685C79.5982 59.1685 79.0606 59.0567 78.6354 58.8354C78.2103 58.6171 77.8831 58.3381 77.6591 58.0049C77.4321 57.6687 77.274 57.1861 77.1878 56.5684C77.0959 55.9364 77.0496 55.3647 77.0496 54.8734V49.2538C77.0496 48.4039 77.1588 48.0645 77.2507 47.9293C77.4403 47.6449 77.7564 47.5064 78.216 47.5064H78.8855V46.7885H73.0075ZM59.5206 46.8659V47.5845H60.1901C60.6239 47.5845 60.9372 47.7019 61.1498 47.9403C61.2274 48.0323 61.3564 48.3314 61.3564 49.3312V57.6919C61.3564 58.6018 61.2592 58.8951 61.1989 58.9902C61.0007 59.289 60.6699 59.4359 60.1901 59.4359H59.5206V60.1566H65.3993V59.4359H64.727C64.296 59.4359 63.9856 59.3206 63.7845 59.0821C63.7012 58.9901 63.5662 58.6884 63.5661 57.6919V54.1611C63.8879 54.23 64.207 54.2846 64.5086 54.3248C64.8763 54.3708 65.2209 54.3932 65.534 54.3932C66.8355 54.3932 67.8613 54.043 68.5853 53.3478C69.3093 52.6526 69.6742 51.7389 69.6743 50.6358C69.6743 49.8198 69.4327 49.1011 68.9529 48.5035C68.479 47.9118 67.8873 47.4869 67.1951 47.2369C66.5142 46.9927 65.5774 46.8659 64.414 46.8659H59.5206ZM108.153 46.8686V47.5872H108.791C109.061 47.5873 109.323 47.6559 109.573 47.7938C109.728 47.8829 109.831 47.9896 109.877 48.1103C109.929 48.2369 109.989 48.5532 109.989 49.334V57.6919C109.989 58.648 109.868 58.9526 109.796 59.0476C109.595 59.309 109.265 59.4386 108.791 59.4386H108.153V60.1566H114.031V59.4386H113.385C113.118 59.4386 112.859 59.3698 112.618 59.2348C112.457 59.1429 112.351 59.0361 112.305 58.9184C112.253 58.7918 112.196 58.4728 112.196 57.6919V49.334C112.196 48.3773 112.319 48.0752 112.391 47.9804C112.595 47.7162 112.92 47.5872 113.385 47.5872H114.031V46.8686H108.153ZM91.1619 46.8631V47.581H91.8252C92.259 47.581 92.5697 47.6991 92.7794 47.9376C92.8627 48.0296 92.9978 48.3319 92.9978 49.3285V57.6891C92.9977 58.5968 92.8909 58.8899 92.8305 58.9847C92.6323 59.2862 92.3049 59.4331 91.8252 59.4331H91.1619V60.151H97.0399V59.4331H96.3558C95.9308 59.4331 95.6263 59.3178 95.4224 59.0793C95.339 58.9873 95.204 58.6857 95.204 57.6891V54.1148C95.2355 54.1176 95.2699 54.1203 95.3014 54.1203C95.3848 54.1232 95.4741 54.1231 95.5661 54.1231C95.7499 54.1231 95.9797 54.1179 96.2439 54.1092L100.577 60.0764L100.632 60.151H104.375V59.4532L104.208 59.4359C103.536 59.3612 102.987 59.1915 102.574 58.9273C102.16 58.6602 101.648 58.1027 101.056 57.2725C101.054 57.2696 99.1146 54.5887 98.54 53.7928C99.5253 53.5342 100.278 53.1237 100.775 52.5636C101.321 51.9487 101.6 51.21 101.6 50.3739C101.6 49.5896 101.355 48.903 100.875 48.3342C100.401 47.7739 99.8152 47.3831 99.1315 47.1733C98.4649 46.9665 97.4275 46.8631 96.0456 46.8631H91.1619ZM142.157 46.5784L137.488 57.298C137.106 58.2145 136.758 58.8238 136.454 59.1111C136.379 59.1829 136.158 59.321 135.503 59.4359L135.35 59.4642V60.151H139.775V59.4469L139.603 59.4331C138.879 59.3814 138.597 59.2692 138.491 59.183C138.347 59.0709 138.278 58.9472 138.278 58.8064C138.278 58.6541 138.333 58.3464 138.588 57.7548C138.595 57.7387 139.239 56.2614 139.419 55.847H144.194C144.358 56.2464 144.909 57.5916 144.909 57.5945C145.153 58.1661 145.277 58.5855 145.277 58.8354C145.277 58.9848 145.211 59.1112 145.073 59.2203C144.972 59.3007 144.725 59.4073 144.139 59.4331L143.961 59.4414V60.151H149.466V59.4442L149.114 59.4172C148.716 59.3701 148.399 59.2458 148.171 59.0448C147.895 58.8063 147.578 58.2632 147.234 57.43L142.835 46.6938L142.786 46.5784H142.157Z" fill="black"/>
<path fill-rule="evenodd" clip-rule="evenodd" d="M54.4724 43.3516V63.326H34.5132V43.3516H54.4724ZM35.1883 62.6136H53.7199V44.0647H35.1883V62.6136Z" fill="black"/>
<path d="M35.9409 50.4861H41.6412V44.7802H35.9409V50.4861Z" fill="black"/>
<path d="M47.3441 50.4861H53.0472V44.7802H47.3441V50.4861Z" fill="black"/>
<path d="M41.6412 56.1921H47.3442L47.3441 50.4861H41.6412L41.6412 56.1921Z" fill="black"/>
<path d="M35.9409 61.9008H41.6412L41.6412 56.1921L35.9409 56.192V61.9008Z" fill="black"/>
<path d="M47.3441 61.9008H53.0472V56.192L47.3442 56.1921L47.3441 61.9008Z" fill="black"/>
</svg>
