<svg width="187" height="107" viewBox="0 0 187 107" fill="none" xmlns="http://www.w3.org/2000/svg">
<g clip-path="url(#clip0_2529_359)">
<path fill-rule="evenodd" clip-rule="evenodd" d="M97.1663 58.2121C95.9632 59.4346 94.5241 60.049 92.856 60.049C91.5071 60.049 90.3608 59.7736 89.1909 59.0931V56.2909C90.1319 56.9299 91.3145 57.5385 92.4805 57.5385C94.9135 57.5385 96.3617 55.8619 96.3617 53.4859C96.3617 51.108 94.8639 49.3816 92.4298 49.3816C91.3427 49.3816 90.4615 49.7729 89.7732 50.5573C89.0354 51.4069 88.654 52.6213 88.654 54.2271V65.2922H88.4708C87.1296 65.2922 86.0431 64.2042 86.0431 62.8617V53.8117C86.0431 49.9714 88.3878 46.8706 92.4179 46.8706C94.4078 46.8706 96.0241 47.5519 97.2496 48.9208C98.4017 50.1997 98.9727 51.8201 98.9727 53.7702C98.9727 55.5054 98.3702 56.9889 97.1663 58.2121ZM125.435 58.1183C124.236 59.4066 122.694 60.049 120.824 60.049C118.851 60.049 117.242 59.3676 116.018 57.999C114.867 56.7044 114.295 55.0826 114.295 53.1502C114.295 49.7295 116.932 46.8706 120.402 46.8706C121.741 46.8706 122.903 47.1537 124.077 47.7983V50.6298C123.136 49.9905 121.954 49.3819 120.788 49.3819C118.355 49.3819 116.906 51.0582 116.906 53.435C116.906 55.7794 118.439 57.5388 120.837 57.5388C121.923 57.5388 122.818 57.1311 123.534 56.31C124.245 55.4944 124.614 54.2957 124.614 52.6855V43.8777C124.614 42.5349 125.701 41.4472 127.042 41.4472H127.225V53.0985C127.225 55.1504 126.632 56.83 125.435 58.1183ZM132.808 45.6271C132.534 45.9343 132.141 46.0757 131.662 46.0757C130.765 46.0757 130.124 45.414 130.124 44.5234C130.124 43.612 130.753 42.9968 131.661 42.9968C132.535 42.9968 133.199 43.6455 133.199 44.5234C133.199 44.9579 133.072 45.3301 132.808 45.6271ZM146.073 52.6853C146.073 51.6546 145.684 50.8387 144.902 50.2207C144.197 49.6644 143.317 49.3816 142.246 49.3816C139.883 49.3816 138.366 51.2312 138.366 53.5119C138.366 55.7066 139.974 57.5385 142.221 57.5385C143.784 57.5385 144.62 56.6244 145.511 55.4855V58.769C145.057 59.1097 144.535 59.4811 144.002 59.6992C143.439 59.9344 142.767 60.049 141.991 60.049C138.233 60.049 135.755 56.9327 135.755 53.3312C135.755 51.4819 136.328 49.9531 137.483 48.7608C138.709 47.4974 140.317 46.8706 142.284 46.8706C146.016 46.8706 148.685 49.0157 148.685 52.8917V59.7908H148.502C147.161 59.7908 146.073 58.7026 146.073 57.3597V52.6853ZM110.333 51.9447C110.003 50.9231 109.589 50.4203 108.638 49.8883C106.375 48.6227 104.148 49.7001 103.112 51.935L110.333 51.9447ZM108.34 60.0105C106.673 60.3653 105.036 60.0916 103.44 59.1982C101.883 58.3275 100.84 57.0326 100.317 55.3214C99.2602 51.8605 101.425 48.0039 104.907 47.0701C106.633 46.6074 108.288 46.8169 109.861 47.6964C112.472 49.1583 113.424 51.4191 113.258 54.3323L102.739 54.3112C102.894 55.4993 103.63 56.429 104.664 57.0071C105.712 57.5939 106.676 57.7339 107.57 57.4563C108.563 57.1441 109.369 56.3327 110.024 55.5771L112.168 57.1411C111.293 58.7075 110.103 59.6347 108.34 60.0105ZM130.356 47.1293H132.967V59.7905H132.783C131.443 59.7905 130.356 58.7023 130.356 57.3594L130.356 47.1293ZM41.8024 59.7905C39.2487 59.7905 37.9814 58.0516 37.9814 55.6225V46.4092C37.9814 45.0669 39.0686 43.9784 40.4094 43.9784H40.5927V47.1296H45.0039V49.6404H40.5924V55.9139C40.5924 56.9808 41.0681 57.2803 42.0861 57.2803H45.0039V59.791L41.8024 59.7905ZM56.9652 58.19C55.6755 59.4282 54.1251 60.0487 52.3239 60.0487C50.5396 60.0487 48.9981 59.4277 47.7084 58.19C46.4143 56.9474 45.7692 55.3657 45.7692 53.4599C45.7692 49.7414 48.6048 46.8708 52.3239 46.8708C54.109 46.8708 55.6547 47.4963 56.9524 48.7431C58.2546 49.9935 58.9052 51.5705 58.9052 53.4599C58.9052 55.3657 58.2593 56.9471 56.9652 58.19ZM69.1721 50.1759C68.7891 50.8191 68.4921 51.2802 68.2832 51.5589C68.0529 51.8619 67.8254 52.1041 67.6002 52.2712C69.4146 52.858 70.0904 54.1167 70.0904 55.9917V59.7905H69.9072C68.5663 59.7905 67.4792 58.7023 67.4792 57.3594V56.2494C67.4792 55.0352 66.9354 54.2116 65.6507 54.2116H63.2797V59.7905H63.0962C61.7556 59.7905 60.6693 58.7023 60.6693 57.3594V43.8777C60.6693 42.5349 61.7556 41.4472 63.0965 41.4472H63.2797V51.6754H64.0513C64.8993 51.6754 65.4564 51.3848 65.7763 50.8354L67.9694 47.1299L70.9445 47.1271L69.1721 50.1759ZM82.6497 58.1903C81.3595 59.4285 79.8091 60.049 78.0082 60.049C76.2242 60.049 74.6827 59.4279 73.3924 58.1903C72.0983 56.9476 71.4532 55.366 71.4532 53.4602C71.4532 49.7417 74.2891 46.8711 78.0082 46.8711C79.7933 46.8711 81.3387 47.4966 82.6367 48.7434C83.9392 49.9938 84.5893 51.5708 84.5893 53.4602C84.5893 55.366 83.9439 56.9474 82.6497 58.1903ZM80.765 50.5135C80.0454 49.7599 79.1316 49.3816 78.0082 49.3816C75.6057 49.3816 74.1671 51.1354 74.1671 53.4602C74.1671 55.7526 75.6397 57.5385 78.0082 57.5385C80.3773 57.5385 81.8493 55.7526 81.8493 53.4602C81.8493 52.243 81.484 51.2663 80.7653 50.5135H80.765ZM55.081 50.5135C54.3614 49.7599 53.4475 49.3816 52.3245 49.3816C49.9216 49.3816 48.4833 51.1354 48.4833 53.4602C48.4833 55.7526 49.9557 57.5385 52.3242 57.5385C54.6932 57.5385 56.165 55.7526 56.165 53.4602C56.165 52.243 55.8003 51.2663 55.081 50.5135Z" fill="black"/>
</g>
<defs>
<clipPath id="clip0_2529_359">
<rect width="110.703" height="23.8392" fill="white" transform="translate(37.9814 41.4137)"/>
</clipPath>
</defs>
</svg>
