<svg width="187" height="107" viewBox="0 0 187 107" fill="none" xmlns="http://www.w3.org/2000/svg">
<g clip-path="url(#clip0_2532_565)">
<path fill-rule="evenodd" clip-rule="evenodd" d="M58.4178 60.5358C58.2249 62.121 57.2601 63.3905 55.7657 64.0261C54.9335 64.3803 53.816 64.5715 52.9315 64.5115C51.5517 64.4589 50.2554 64.1249 49.0606 63.5141C48.6337 63.2959 47.9973 62.8601 47.5087 62.4519C47.3849 62.3487 47.3702 62.2826 47.4521 62.1669C47.4964 62.1006 47.5779 61.9808 47.7581 61.718C48.0194 61.3367 48.0521 61.2889 48.0814 61.2442C48.165 61.1165 48.3009 61.1052 48.435 61.2103L48.4597 61.2294L48.5335 61.2866C48.5861 61.3273 48.6171 61.3513 48.6297 61.3607C49.9184 62.3655 51.4192 62.945 52.9344 63.0029C55.0424 62.9744 56.5583 62.0307 56.8299 60.5818C57.1286 58.9871 55.8711 57.6096 53.4111 56.8418C52.6418 56.6017 50.6971 55.8268 50.3385 55.6173C48.6546 54.6337 47.8673 53.3454 47.9792 51.7541C48.1507 49.5481 50.2075 47.903 52.8066 47.892C53.9688 47.8897 55.1286 48.1301 56.2428 48.5976C56.6374 48.7631 57.3418 49.1447 57.5849 49.3255C57.725 49.4278 57.7526 49.5473 57.6723 49.676C57.6276 49.7507 57.5535 49.869 57.3972 50.1158L57.3955 50.1185C57.3084 50.2552 57.2219 50.3922 57.1362 50.5297C57.0548 50.6533 56.9588 50.6648 56.8118 50.572C55.6195 49.7745 54.2979 49.3733 52.8442 49.3444C51.0344 49.3801 49.678 50.4523 49.5888 51.9131C49.5651 53.2323 50.559 54.1956 52.706 54.9299C57.0639 56.3241 58.7316 57.9586 58.4178 60.5358ZM53.0358 37.7605C55.873 37.7605 58.1858 40.4411 58.2939 43.7967H47.7777C47.8859 40.4412 50.1986 37.7605 53.0358 37.7605ZM67.7194 44.4275C67.7194 44.0791 67.4376 43.7967 67.0901 43.7967H60.2737C60.1065 39.3661 56.93 35.8333 53.0358 35.8333C49.1417 35.8333 45.965 39.3661 45.7979 43.7967L38.9718 43.7968C38.6296 43.803 38.354 44.0831 38.354 44.4275C38.354 44.4439 38.3547 44.4603 38.3559 44.4764H38.3511L39.3242 65.831C39.3242 65.9045 39.3275 65.978 39.3341 66.0513L39.3362 66.0964L39.3386 66.0987C39.4865 67.5847 40.5696 68.7815 42.0426 68.8367L42.0459 68.84H63.6986C63.7192 68.8402 63.7397 68.8402 63.7602 68.84H63.8063L63.8073 68.8391C65.3059 68.7984 66.5198 67.5848 66.648 66.0805L66.6487 66.0797L66.6498 66.0596C66.6509 66.0437 66.6521 66.028 66.6531 66.0122C66.6554 65.9743 66.657 65.9365 66.6576 65.899L67.7194 44.4601H67.7186C67.7193 44.4494 67.7195 44.4384 67.7195 44.4275M139.904 58.3453C140.321 56.9905 141.583 56.0873 143.054 56.0873C144.46 56.0873 145.797 57.0372 146.26 58.3427L146.291 58.4324H139.877L139.904 58.3453ZM147.719 60.308C147.727 60.3083 147.727 60.3083 147.74 60.3084C147.753 60.3084 147.753 60.3084 147.766 60.308C148.073 60.294 148.316 60.0333 148.316 59.7161C148.316 59.7008 148.316 59.6875 148.314 59.6662C148.315 59.6623 148.315 59.6545 148.315 59.6296C148.315 56.6375 145.959 54.213 143.053 54.213C140.147 54.213 137.791 56.6377 137.791 59.6296C137.791 59.8527 137.804 60.0751 137.83 60.2963L137.832 60.308L137.84 60.3663C137.985 61.4429 138.446 62.431 139.175 63.2305C139.175 63.2301 139.175 63.2309 139.179 63.2351C139.987 64.1203 141.084 64.7235 142.301 64.9491L142.317 64.9522V64.9506L142.396 64.9637C142.436 64.9706 142.479 64.9774 142.536 64.9863C144.138 65.178 145.558 64.9482 146.761 64.3452C147.057 64.1965 147.324 64.0326 147.554 63.8594C147.623 63.8084 147.689 63.755 147.753 63.6991C147.783 63.6731 147.807 63.6513 147.819 63.6386C148.091 63.3602 148.108 63.2616 147.944 63.0075C147.789 62.7615 147.631 62.518 147.468 62.277C147.421 62.2065 147.379 62.1464 147.344 62.0965L147.313 62.0518C147.308 62.0451 147.308 62.0451 147.305 62.0408L147.303 62.0386C147.155 61.8548 147.053 61.838 146.889 61.9826C146.871 61.9981 146.812 62.0432 146.802 62.0544C145.645 63.0773 144.065 63.4064 142.487 63.0777C142.193 62.9991 141.918 62.8994 141.665 62.7789C140.676 62.2855 139.976 61.406 139.774 60.3883L139.758 60.308H147.719ZM127.383 58.3453C127.8 56.9905 129.062 56.0873 130.534 56.0873C131.939 56.0873 133.277 57.0372 133.739 58.3427L133.77 58.4324H127.356L127.383 58.3453ZM135.198 60.308C135.207 60.3083 135.207 60.3083 135.219 60.3084C135.232 60.3084 135.232 60.3084 135.245 60.308C135.552 60.294 135.795 60.0333 135.795 59.7161C135.795 59.7008 135.795 59.6875 135.794 59.6662C135.794 59.6623 135.794 59.6545 135.794 59.6296C135.794 56.6375 133.438 54.213 130.532 54.213C127.627 54.213 125.27 56.6377 125.27 59.6296C125.27 59.8527 125.283 60.0751 125.31 60.2963L125.311 60.308L125.32 60.3663C125.464 61.4429 125.926 62.431 126.654 63.2305L126.658 63.2351C127.466 64.1203 128.563 64.7235 129.78 64.9491L129.796 64.9522V64.9506L129.875 64.9637C129.916 64.9706 129.958 64.9774 130.016 64.9863C131.617 65.178 133.038 64.9482 134.24 64.3452C134.537 64.1965 134.803 64.0326 135.034 63.8594C135.102 63.8084 135.168 63.755 135.232 63.6991C135.262 63.6731 135.286 63.6513 135.298 63.6386C135.57 63.3602 135.587 63.2616 135.423 63.0075C135.268 62.7615 135.11 62.518 134.948 62.277C134.907 62.2165 134.865 62.1564 134.824 62.0965L134.792 62.0518C134.787 62.0451 134.787 62.0451 134.784 62.0408L134.783 62.0386C134.634 61.8548 134.533 61.838 134.368 61.9826C134.351 61.9981 134.292 62.0432 134.281 62.0544C133.125 63.0773 131.544 63.4064 129.966 63.0777C129.673 62.9991 129.398 62.8994 129.145 62.7789C128.156 62.2855 127.456 61.406 127.254 60.3883L127.238 60.308H135.198ZM117.828 63.2912C115.871 63.2912 114.27 61.7465 114.221 59.8107V59.6286C114.27 57.6959 115.871 56.1509 117.828 56.1509C119.82 56.1509 121.435 57.7493 121.435 59.7211C121.435 61.6928 119.82 63.2912 117.828 63.2912ZM117.829 54.257C116.545 54.257 115.319 54.6923 114.333 55.4904L114.221 55.5812V54.5821C114.221 54.3156 114.164 54.257 113.893 54.257H112.633C112.359 54.257 112.305 54.3113 112.305 54.5821V70.5082C112.305 70.7698 112.366 70.8333 112.633 70.8333H113.893C114.161 70.8333 114.221 70.7711 114.221 70.5082V63.8665L114.333 63.9572C115.319 64.7556 116.545 65.1908 117.829 65.1908C120.88 65.1908 123.353 62.7431 123.353 59.7238C123.353 56.7047 120.88 54.257 117.829 54.257ZM104.856 63.1692C102.859 63.1692 101.241 61.5848 101.241 59.6299C101.241 57.675 102.859 56.0905 104.856 56.0905C106.852 56.0905 108.47 57.675 108.47 59.6299C108.47 61.5847 106.852 63.1692 104.856 63.1692ZM104.857 54.213C101.8 54.213 99.3221 56.6395 99.3221 59.6326C99.3221 62.6256 101.8 65.0523 104.857 65.0523C107.914 65.0523 110.391 62.6256 110.391 59.6326C110.391 56.6395 107.914 54.213 104.857 54.213ZM92.5189 54.3334C91.403 54.3334 90.3231 54.6905 89.4274 55.3506L89.3185 55.4309V48.0346C89.3185 47.7894 89.2376 47.7094 88.9913 47.7094H87.6729C87.4065 47.7094 87.3457 47.7728 87.3457 48.0345V64.9074C87.3457 65.163 87.4114 65.2329 87.6729 65.2329H88.9913C89.236 65.2329 89.3184 65.1489 89.3184 64.9074V59.3963C89.3321 57.6614 90.7613 56.2611 92.5189 56.2611C94.281 56.2611 95.7118 57.6682 95.7193 59.4087V64.9074C95.7193 65.1866 95.766 65.2328 96.0465 65.2328H97.3618C97.6406 65.2328 97.6889 65.1853 97.6889 64.9074V59.3928C97.6785 56.6109 95.3484 54.3334 92.5189 54.3334ZM74.1454 62.1724L74.1423 62.1771C73.9543 62.4606 73.8756 62.58 73.8316 62.6484C73.6834 62.8681 73.7018 62.9659 73.9281 63.1564C74.4564 63.5804 75.1354 64.0256 75.5935 64.2486C76.868 64.8691 78.2448 65.1971 79.7037 65.2268C80.6461 65.2741 81.8299 65.051 82.7112 64.6597C84.3068 63.9509 85.3232 62.5698 85.5014 60.8685C85.7899 58.112 83.9883 56.3887 79.3479 55.0001L79.3467 54.9997C77.1846 54.3056 76.169 53.3827 76.1687 52.0941C76.2322 50.6701 77.5586 49.6062 79.3479 49.5398C80.7893 49.5433 82.0637 49.9245 83.3157 50.7267C83.5797 50.8862 83.7015 50.8567 83.8791 50.6275C83.8994 50.5935 83.9562 50.5114 84.1936 50.1722L84.1942 50.1711C84.4159 49.8541 84.4889 49.7484 84.5071 49.7171C84.6566 49.4368 84.6352 49.3289 84.3652 49.1383C84.0993 48.9487 83.3503 48.5606 82.9221 48.3904C81.7307 47.9173 80.4991 47.6875 79.2734 47.7111C76.4838 47.7714 74.3083 49.5777 74.1649 51.9471C74.0739 53.6586 74.9464 55.0348 76.7694 56.0522C77.2804 56.3208 79.149 57.024 80.0211 57.2783C82.501 58.0013 83.794 59.3313 83.5267 60.9005C83.2841 62.3262 81.7836 63.2744 79.678 63.3393C78.1511 63.3075 76.6127 62.7505 75.277 61.7511C75.2704 61.7463 75.2364 61.7212 75.174 61.6749L75.0731 61.6C74.8008 61.4128 74.6406 61.4284 74.4743 61.675C74.4543 61.7056 74.2475 62.0187 74.1455 62.1724" fill="black"/>
</g>
<defs>
<clipPath id="clip0_2532_565">
<rect width="110" height="35" fill="white" transform="translate(38.3335 35.8333)"/>
</clipPath>
</defs>
</svg>
