<svg width="187" height="107" viewBox="0 0 187 107" fill="none" xmlns="http://www.w3.org/2000/svg">
<g clip-path="url(#clip0_2529_342)">
<path d="M113.095 47.9195V43.6818C118.611 43.5986 118.835 43.5254 120.658 43.5724C123.461 43.6433 125.152 44.4448 126.368 45.6769C127.539 46.8644 128.469 48.6755 128.425 51.3041C128.4 52.8176 127.466 58.3853 120.704 58.7328C119.911 58.8036 118.09 58.7412 116.934 58.7682L118.077 54.4204C120.756 54.6439 122.882 53.7977 122.995 51.2593C123.119 48.4096 120.595 47.5048 118.078 47.951L113.095 47.9195Z" fill="black"/>
<path d="M118.075 62.8663L113.095 62.8656V47.0163L118.075 47.0486V62.8663Z" fill="black"/>
<path d="M135.973 50.4387L140.06 51.8959C142.781 52.9709 143.359 55.1524 143.333 57.0313C143.273 61.3891 139.799 63.0228 137.03 63.2587C133.881 63.5262 131.444 62.9983 130.624 62.8651V58.1226C133.117 58.8802 136.017 58.8501 136.996 58.468C137.737 58.1789 138.299 57.7374 138.255 57.1578C138.23 56.8434 138.199 56.4435 137.262 56.0428L133.493 54.6742C131.073 53.8019 130.139 51.5016 130.24 49.4526C130.445 45.3127 133.749 43.2174 137.048 43.3385C138.065 43.3754 139.436 43.3515 141.43 43.6276V48.3259C139.196 47.8058 138.149 47.8143 136.996 47.9577C135.707 48.1171 135.128 48.7845 135.155 49.4975C135.168 49.8588 135.528 50.255 135.973 50.4323" fill="black"/>
<path d="M66.0746 50.8309H71.4368L71.4353 43.6996H76.4155V62.8696H71.4368V55.1735H66.0746L66.0739 62.8696H61.0884V43.6996H66.0739L66.0746 50.8309Z" fill="black"/>
<path d="M86.0892 43.6996H81.106V62.8696H86.0892V43.6996Z" fill="black"/>
<path d="M108.356 43.6996H103.372V62.8696H108.356V43.6996Z" fill="black"/>
<path d="M95.7632 58.5171H100.901V62.8681L90.7783 62.8696V43.6996H95.7632V58.5171Z" fill="black"/>
<path d="M43.3335 47.9195V43.6818C48.8502 43.5986 49.0729 43.5254 50.8974 43.5724C53.6996 43.6433 55.3902 44.4448 56.6066 45.6769C57.7775 46.8644 58.7076 48.6755 58.6645 51.3041C58.6382 52.8176 57.7044 58.3853 50.942 58.7328C50.1499 58.8036 48.386 58.7412 47.2297 58.7682L48.3182 54.4204C50.9981 54.6439 53.1222 53.7977 53.233 51.2593C53.3569 48.4096 50.8326 47.5048 48.316 47.951L43.3335 47.9195Z" fill="black"/>
<path d="M48.3206 62.8665L43.3335 62.8657V47.3454L48.316 47.3771L48.3206 62.8665Z" fill="black"/>
</g>
<defs>
<clipPath id="clip0_2529_342">
<rect width="100" height="20" fill="white" transform="translate(43.3335 43.3333)"/>
</clipPath>
</defs>
</svg>
