<svg width="187" height="107" viewBox="0 0 187 107" fill="none" xmlns="http://www.w3.org/2000/svg">
<path d="M35.8614 41.8333H53.9357C55.6103 41.8956 56.6023 43.3128 56.941 44.8384C58.6796 43.9035 60.4076 42.9416 62.1515 42.0338C62.1622 43.5422 62.1622 45.0533 62.1515 46.5672C57.9943 48.8948 53.7224 51.0138 49.5838 53.3767C53.8024 55.5444 57.9809 57.7745 62.1515 60.0317V64.603C60.3969 63.6844 58.6369 62.7685 56.9143 61.7876C56.6183 63.1939 55.8263 64.4838 54.365 64.8333H35.6854C35.171 64.6816 34.6946 64.4192 34.2888 64.0639C33.883 63.7085 33.5572 63.2686 33.3335 62.7739V57.3545C35.8561 55.9997 38.4001 54.7153 40.9067 53.29C38.3707 52.011 35.8401 50.7184 33.3335 49.3744V44.2802C33.4428 43.6524 33.7473 43.0768 34.2023 42.6379C34.6573 42.1989 35.2388 41.9198 35.8614 41.8414M35.8934 46.2149C39.0454 47.7161 42.0986 49.388 45.1706 51.0409C48.2585 49.4449 51.3038 47.8028 54.3757 46.1634C48.2158 46.1878 42.0533 46.0876 35.8934 46.2203M35.9681 60.5059C42.1013 60.5682 48.2345 60.5059 54.3677 60.5384C51.3678 58.8042 48.2558 57.2868 45.2292 55.6095C42.1431 57.2479 39.0534 58.8801 35.9601 60.5059M72.3753 45.047C75.6579 42.6083 80.1325 42.8305 83.7297 44.3913C83.783 45.5808 83.7964 46.7731 83.807 47.9654C81.0658 46.6105 77.5112 45.7082 74.8232 47.6511C72.1566 49.4178 72.1113 53.9701 74.8072 55.7233C77.4952 57.6661 81.0951 56.8885 83.7964 55.3981V58.9505C80.0845 60.7227 75.2952 60.7958 71.9993 58.0861C68.0794 54.9185 68.2501 47.9573 72.3753 45.047ZM118.1 45.5321C121.377 42.5947 126.342 42.6516 130.134 44.4915C130.123 45.6694 130.123 46.8436 130.134 48.0142C127.494 46.5861 124.094 45.8193 121.366 47.4532C118.638 49.0872 118.284 53.4959 120.798 55.4794C123.465 57.7556 127.302 56.8614 130.131 55.4144C130.131 56.6012 130.131 57.7908 130.113 58.9831C126.449 60.6089 121.846 60.8419 118.542 58.2704C114.636 55.3412 114.409 48.7241 118.108 45.5348M145.79 47.8651L148.931 46.1119V48.4315H153.301V51.0138H148.939C149.019 52.8049 148.702 54.6638 149.136 56.417C149.952 58.013 151.952 57.5008 153.333 57.1757C153.296 58.0861 153.272 59.002 153.24 59.9125C151.475 60.2078 149.552 60.5303 147.891 59.6415C146.584 59.0643 145.803 57.6282 145.811 56.2083C145.76 53.4309 145.83 50.6507 145.792 47.8705M87.8203 49.2877C89.9882 47.5345 93.3828 47.876 95.2868 49.892C95.2628 49.5966 95.2201 49.0059 95.2015 48.7133H98.4014V59.926L95.2415 59.9125V58.6145C93.4788 60.3623 90.6682 60.7091 88.4789 59.6253C84.9323 57.5984 84.6177 51.7861 87.8149 49.2877M90.9695 51.0138C88.5909 51.7915 88.1723 55.4659 90.1482 56.9183C92.0309 58.3544 95.1801 57.2055 95.3774 54.7098C95.8814 52.2494 93.2442 50.0708 90.9695 51.0138ZM103.857 50.0166C105.457 48.3556 107.985 47.6348 110.145 48.5615C113.761 50.0221 114.553 55.3358 112.222 58.2541C110.257 60.804 106.127 60.8528 103.911 58.6145C103.972 60.6902 103.953 62.7604 103.953 64.8333H100.769V48.7133H103.889C103.889 49.0384 103.863 49.6915 103.852 50.0112M105.607 51.0951C103.207 52.0977 103.089 56.0972 105.473 57.1865C107.503 58.3273 110.374 56.7801 110.209 54.3196C110.497 51.8809 107.737 50.0464 105.607 51.0951ZM132.017 48.4558C133.054 48.4369 134.094 48.4315 135.134 48.4179C135.203 50.8566 134.987 53.2954 135.241 55.7341C135.689 58.1729 139.91 58.2298 140.363 55.7639C140.56 53.3252 140.382 50.8864 140.443 48.464C141.48 48.4504 142.523 48.4504 143.56 48.4504C143.56 50.8892 143.584 53.3279 143.56 55.7666C143.599 56.5507 143.401 57.3279 142.993 57.9946C142.585 58.6613 141.987 59.1857 141.278 59.4979C140.123 60.0232 138.868 60.2805 137.603 60.251C136.338 60.2214 135.096 59.9059 133.966 59.3272C132.691 58.6687 132.022 57.1784 132.011 55.7748C131.966 53.336 132.011 50.8973 132.011 48.4585" fill="black"/>
</svg>
